<?xml version="1.0" encoding="utf-8"?>
<!-- Generator: Adobe Illustrator 27.5.0, SVG Export Plug-In . SVG Version: 6.00 Build 0)  -->
<svg version="1.1" id="Layer_1" xmlns="http://www.w3.org/2000/svg" xmlns:xlink="http://www.w3.org/1999/xlink" x="0px" y="0px"
	 viewBox="0 0 280 280" style="enable-background:new 0 0 280 280;" xml:space="preserve">
<style type="text/css">
	.st0{fill:#FFFFFF;}
	.st1{fill:#E0684B;}
	.st2{fill:#BB464B;}
	.st3{fill:#E0DED8;}
	.st4{fill:#D5D2CA;}
</style>
<path class="st0" d="M140.7,13.9l-110.8,64v128l110.8,64l110.8-64v-128L140.7,13.9z"/>
<polygon class="st1" points="251.6,77.9 216.9,57.9 183.5,77.1 218.2,97.1 "/>
<polygon class="st1" points="63.3,97.1 174.1,33.2 140.7,13.9 29.9,77.9 "/>
<polygon class="st1" points="106.1,161.9 140.7,181.9 175.4,161.9 140.7,141.9 "/>
<polygon class="st2" points="218.2,97.1 218.2,186.6 140.7,231.3 63.3,186.6 63.3,97.1 29.9,77.9 29.9,205.9 140.7,269.9 
	251.6,205.9 251.6,77.9 "/>
<polygon class="st2" points="140.7,101.8 106.1,121.8 106.1,161.9 140.7,141.9 175.4,161.9 175.4,121.8 "/>
<polygon class="st3" points="218.2,97.1 175.4,121.8 175.4,161.9 140.7,181.9 140.7,231.3 218.2,186.6 "/>
<polygon class="st4" points="63.3,97.1 106.1,121.8 106.1,161.9 140.7,181.9 140.7,231.3 63.3,186.6 "/>
<polygon class="st0" points="174.1,33.2 216.9,57.9 183.5,77.1 218.2,97.1 175.4,121.8 140.7,101.8 106.1,121.8 63.3,97.1 "/>
</svg>
