<?xml version="1.0" encoding="UTF-8"?>
<svg id="Layer_2" data-name="Layer 2" xmlns="http://www.w3.org/2000/svg" xmlns:xlink="http://www.w3.org/1999/xlink" viewBox="0 0 487.62 443.49">
  <defs>
    <style>
      .cls-1 {
        fill: url(#linear-gradient);
      }

      .cls-2 {
        fill: #fff;
      }

      .cls-3 {
        fill: #d24625;
      }
    </style>
    <linearGradient id="linear-gradient" x1="-762.61" y1="-324.01" x2="-762.61" y2="-190.43" gradientTransform="translate(-381.01 -1304.05) rotate(-90) scale(2 -2)" gradientUnits="userSpaceOnUse">
      <stop offset="0" stop-color="#d04223"/>
      <stop offset="1" stop-color="#d44a27"/>
    </linearGradient>
  </defs>
  <g id="layer1">
    <g id="shape307-43">
      <rect id="rect165" class="cls-2" x="205.39" y="57.87" width="276.25" height="319.62"/>
    </g>
    <g id="shape48-45">
      <path id="path170" class="cls-3" d="m197.89,47.66c-10.5,0-18.97,7.98-18.97,17.93v302.19c0,9.92,8.46,17.93,18.97,17.93h270.76c10.5,0,18.97-8,18.97-17.93V65.59c0-9.94-8.46-17.93-18.97-17.93H197.89Zm-3.3,15.89h277.36v305.9l-278.45.36.58-307.3.5,1.04Z"/>
    </g>
    <g id="shape54-47">
      <rect id="rect175" class="cls-3" x="219.21" y="265.08" width="194.91" height="20.22"/>
    </g>
    <g id="shape55-49">
      <rect id="rect180" class="cls-3" x="219.21" y="312.75" width="194.91" height="20.22"/>
    </g>
    <g id="group60-51">
      <g id="shape58-52">
        <path id="path187" class="cls-3" d="m327.08,164.93h65.34c0-36.09-29.25-65.34-65.34-65.34h0v65.34Z"/>
      </g>
      <g id="shape59-54">
        <path id="path192" class="cls-3" d="m317.8,173.11v-65.34c-36.09,0-65.34,29.26-65.34,65.34,0,36.09,29.26,65.34,65.34,65.34,36.09,0,65.34-29.25,65.34-65.34h-65.34Z"/>
      </g>
    </g>
    <path id="path439" class="cls-1" d="m267.26,443.49V0L0,44.34v354.79l267.26,44.36Z"/>
    <g id="shape277-234">
      <path id="path595" class="cls-2" d="m88.28,296.98v-148.6l51.44-2.86c16.65-.54,24.41,5.11,32.09,16.09,6.7,9.6,8.7,23.42,7.66,35.51-2.22,25.53-18.01,47.58-41.76,48.78h-21.67v-27.45h14.45c10.35-.46,18.12-11.75,17.62-23.47-.45-13.22-7.4-21.07-16.81-21.4l-15.26.09.02,124.97-27.79-1.66Z"/>
    </g>
  </g>
</svg>